<svg width="626" height="846" viewBox="0 0 626 846" fill="none" xmlns="http://www.w3.org/2000/svg">
<circle cx="322" cy="487" r="252" fill="#B1B1B1"/>
<g filter="url(#filter0_d_307_12719)">
<path fill-rule="evenodd" clip-rule="evenodd" d="M444.666 472.931C439.88 471.222 435.268 469.249 431.066 466.346C418.952 457.316 411.053 443.726 403.589 430.851C393.076 412.125 385.587 392.171 380.41 371.354C378.185 362.411 377.43 352.042 372.375 344.112C360.918 327.51 327.32 329.661 309.48 332.575C297.533 334.692 295.064 348.081 292.35 357.989C290.091 366.221 288.612 374.546 287.371 382.983C284.417 384.928 281.082 386.507 277.904 387.883C243.265 398.52 237.177 418.24 223.947 448.702C201.601 492.977 140.965 510.313 131.806 562.711C125.905 597.304 142.686 629.849 159.988 658.608C176.101 690.02 198.595 705.097 234.419 697.675C268.02 690.127 300.312 677.5 333.321 667.742C349.309 663.806 365.271 653.567 382.089 657.137C416.742 664.931 452.346 668.595 487.86 667.584C537.721 669.603 537.714 621.677 532.596 584.562C529.011 526.804 499.921 489.717 444.666 472.931V472.931Z" fill="white"/>
<path fill-rule="evenodd" clip-rule="evenodd" d="M448 556.507C452.166 559.266 455.67 563.45 458.483 567.853C446.739 566.629 435.016 565.218 423.318 563.613C424.849 562.632 426.395 561.674 427.976 560.769C433.744 557.514 441.559 552.242 448 556.507ZM252.879 591.273C250.727 590.429 249.894 587.143 249.055 585.26C246.426 579.353 244.026 573.346 241.529 567.382C251.01 564.676 260.229 561.673 270.05 560.231C280.61 558.681 291.325 558.306 301.983 558.654C323.57 559.359 344.956 562.892 366.18 566.681C387.378 570.465 408.576 574.101 429.923 576.954C450.837 579.749 471.817 581.795 492.837 583.59C496.921 583.94 503.73 585.41 507.014 582.192C509.615 579.643 509.699 574.942 506.445 572.869C504.418 571.578 501.482 571.559 499.166 571.261C496.25 570.885 493.322 570.635 490.388 570.44C489.193 570.361 487.998 570.288 486.802 570.216C496.4 566.592 506.424 564.615 516.829 565.166C517.418 568.746 520.069 572.429 521.52 575.382C524.054 580.536 526.029 585.753 527.325 591.357C530.035 603.072 530.153 615.231 529.388 627.179C528.685 637.141 527.174 648.161 519.371 655.216C513.463 660.558 505.128 662.536 497.395 663.158C488.407 663.881 479.281 663.109 470.369 661.903C457.868 660.21 445.31 657.972 433.055 654.972C409.321 649.162 386.571 639.917 365.582 627.383C355.346 621.271 345.579 614.395 335.203 608.516C324.63 602.524 313.379 597.875 301.566 594.989C288.345 591.759 274.525 590.381 260.937 591.177C258.579 591.315 255.172 592.172 252.879 591.273ZM237.558 585.275C238.947 589.79 240.01 594.945 242.976 598.738C245.913 602.498 250.344 603.824 254.934 604.159C260.469 604.561 266.069 604.303 271.616 604.51C282.992 604.933 294.213 606.783 305.089 610.178C315.224 613.342 324.632 618.276 333.694 623.751C342.075 628.814 350.21 634.249 358.593 639.296C356.362 640.32 354.156 641.429 351.938 642.393C347.286 644.416 342.605 646.368 337.903 648.272C328.632 652.024 319.321 655.686 309.915 659.088C290.949 665.947 271.671 671.939 252.161 677.044C242.856 679.479 233.418 682.322 223.751 682.727C215.179 683.086 207.239 680.66 200.325 675.556C185.985 664.969 174.577 649.688 165.354 634.615C159.875 625.66 155.094 616.251 151.139 606.522C149.139 601.602 147.324 596.607 145.692 591.553C144.926 589.18 144.199 586.793 143.512 584.396C143.209 583.342 142.919 582.285 142.632 581.226C157.295 576.745 172.132 572.7 187.318 570.455C195.426 569.255 203.641 568.648 211.838 568.737C215.906 568.78 219.972 569 224.019 569.421C226.198 569.647 228.367 569.939 230.527 570.299C231.42 570.448 232.338 570.668 233.258 570.829C234.664 575.653 236.081 580.473 237.558 585.275ZM540.662 566.096C541.453 564.495 541.786 562.92 542.069 561.177C542.285 559.848 542.858 557.976 542.356 556.25C541.794 554.317 540.263 552.588 539.163 550.939C537.95 549.117 536.737 547.294 535.525 545.469C533.102 541.821 530.685 538.169 528.271 534.515C518.415 519.592 508.625 504.626 498.82 489.67C490.119 476.397 481.564 463.005 472.598 449.91C464.931 438.713 456.575 427.701 446.08 418.992C432.811 407.982 417.011 402.795 400.508 398.747C398.705 396.874 396.298 395.851 393.724 396.058C390.088 391.929 387.199 389.044 385.889 383.793C385.261 381.277 385.458 374.21 383.012 372.721C380.106 370.953 378.589 373.293 377.787 375.931C375.106 384.755 378.183 396.619 385.264 405.458C382.281 415.784 378.326 430.459 371.269 438.731C363.713 447.589 353.264 450.346 341.989 450.528C320.488 450.874 299.009 442.872 282.609 429.003C277.624 424.787 272.995 420.08 268.806 415.073C265.665 411.316 261.949 405.519 259.491 401.137C259.491 399.429 257.478 397.644 277.973 396.264C298.469 394.884 300.023 366.78 300.479 362.955C300.849 359.849 302.424 355.028 300.239 352.496C299.311 351.42 297.408 351.247 296.232 351.977C294.015 353.356 293.286 356.883 292.589 359.277C291.612 362.632 288.42 383.452 282.371 385.863C279.539 386.991 276.291 387.012 273.296 387.221C269.597 387.48 265.89 387.669 262.205 388.1C260.846 388.259 259.364 388.699 258.023 388.712C257.151 388.72 256.251 388.296 255.408 387.998C252.562 386.991 249.719 387.746 246.787 388.141C220.868 391.629 194.18 399.591 172.071 413.916C152.585 426.543 138.856 444.702 129.798 465.933C120.555 487.6 115.257 511.03 110.817 534.096C109.33 541.824 108.031 549.588 106.915 557.379C105.837 564.907 104.488 572.603 104.165 580.207C104.037 583.216 104.755 586.011 105.86 588.759C107.104 591.852 110.045 593.072 112.866 594.516C119.058 597.688 125.59 600.148 132.32 601.891C136.432 609.381 139.892 617.164 142.672 625.241C141.641 627.288 141.619 630.345 141.421 632.334C140.929 637.289 140.718 642.269 140.674 647.245C140.586 657.22 141.185 667.185 141.654 677.144C142.13 687.246 143.713 727.1 143.971 731.967C144.171 735.748 143.901 741.036 145.89 744.393C148.946 749.552 156.489 749.378 159.983 745.195C246.787 763.883 409.956 758.254 475.671 748.852C484.222 747.628 481.537 748.985 483.711 746.822C485.343 745.197 486.732 742.416 487.183 740.18C487.786 737.195 486.813 734.495 485.107 732.08C483.313 729.541 482.986 725.43 482.32 722.411C480.744 715.275 479.961 683.935 479.225 680.462C478.996 679.38 478.774 678.236 478.506 677.091C490.56 678.235 503.121 678.235 514.589 674.197C521.092 671.908 527.157 668.311 531.825 663.176C537.478 656.958 540.623 649.131 542.24 640.961C544.327 630.425 544.77 619.512 544.36 608.802C543.79 596.145 541.694 583.309 536.491 571.687C538.203 570.095 539.638 568.174 540.662 566.096Z" fill="#111111"/>
<path fill-rule="evenodd" clip-rule="evenodd" d="M424.039 233.854C422.73 216.888 424.759 199.104 418.227 182.978C406.837 156.221 374.9 147.3 350.141 137.113C340.222 134.178 306.845 133.768 295.231 129.883C268.945 121.091 262.665 110.615 241.779 127.356C238.253 130.215 236.047 133.323 234.438 137.57L234.504 137.588C234.045 139.359 234.537 141.125 235.573 142.474C226.517 151.744 222.727 165.643 227.374 177.983C242.537 210.095 241.824 227.458 236.938 261.98C230.558 294.209 245.138 305.981 269.283 323.517C268.3 325.426 268.096 327.963 269.377 329.647C297.298 368.939 349.942 387.699 395.047 367.756C413.356 359.595 421.53 340.069 426.195 322.449C431.629 302.721 433.298 281.932 428.875 261.836C427.09 252.542 424.766 243.314 424.039 233.854Z" fill="white"/>
<path fill-rule="evenodd" clip-rule="evenodd" d="M262.988 45.88C266.377 45.3704 268.937 47.4761 270.154 50.4441L270.218 50.6039C270.609 51.6138 271.045 52.5961 271.513 53.5619C279.994 49.3954 292.095 50.466 297.462 58.9039C301.292 64.9302 298.956 72.0823 297.512 78.4728L296.564 82.6835C298.396 83.8511 299.778 85.942 299.713 88.1072L299.705 88.2738L299.319 94.1456C300.543 92.9039 301.661 91.5519 302.659 90.1115C303.348 88.8478 304.092 87.6061 304.891 86.403C309.591 79.3227 320.144 85.4759 316.264 93.0585C315.521 94.5209 314.683 95.906 313.785 97.2415C312.771 99.2117 311.939 101.237 311.299 103.318C313.134 104.118 314.545 105.895 314.694 108.577C315.041 114.84 311.757 120.066 306.533 123.35C304.995 124.316 303.408 124.503 301.97 124.145C301.717 124.487 301.463 124.829 301.221 125.177C303.304 126.871 305.183 128.802 306.797 130.944C311.658 130.215 316.545 129.873 321.433 129.862C327.407 126.932 334.56 126.992 340.979 128.09C345.112 128.797 349.08 130.171 353.147 131.159C357.434 132.196 361.787 132.235 366.124 132.941C371.59 133.83 376.385 136.357 379.399 140.391C382.711 140.491 386.193 141.848 389.081 143.692C395.804 147.985 402.488 152.339 409.195 156.66C411.768 158.319 412.731 160.967 412.258 163.921L412.225 164.11L411.999 165.335L412.53 166.09C414.582 168.992 416.815 172.032 418.144 175.236C420.601 178.784 422.822 182.504 424.789 186.339C427.44 191.494 429.628 196.957 431.11 202.564C431.479 203.982 431.849 205.411 432.091 206.857C432.438 208.899 431.904 210.483 431.612 212.442C431.248 214.926 431.116 217.442 430.73 219.931C430.471 221.581 429.071 222.392 427.605 222.436C428.156 226.636 428.553 230.863 428.933 235.057C429.468 241.05 429.832 247.06 430.146 253.07C431.766 255.426 435.078 257.292 437.469 257.937C440.781 258.826 444.253 257.86 447.383 256.729C449.35 256.017 450.965 258.495 450.006 260.15C446.992 265.349 440.544 265.327 435.662 263.026C433.595 262.054 431.782 260.647 430.438 258.815C430.52 260.559 430.609 262.303 430.697 264.052L430.779 265.637C431.772 284.141 433.915 303.283 430.443 321.605C424.431 353.343 398.205 377.508 366.168 379.385C349.356 380.37 335.357 375.397 328.395 372.623C321.433 369.849 324.139 364.193 328.972 365.81C337.297 368.595 352.591 372.744 366.278 370.953C398.537 366.729 425.892 350.583 423.081 281.038C422.683 271.176 421.456 261.309 421.191 251.448C420.938 241.807 421.031 232.16 420.607 222.525L420.465 219.237C420.3 215.396 420.123 211.536 419.835 207.691C419.488 206.201 419.202 204.689 418.777 203.226C417.626 199.247 416.121 195.379 414.253 191.687C413.84 192.001 413.377 192.228 412.876 192.316C409.068 193 405.497 192.807 401.932 191.218C400.267 190.484 398.802 189.507 397.435 188.298C396.785 187.73 396.349 187.178 396.008 186.604C394.283 186.632 392.558 186.113 391.478 184.871C390.246 183.456 390.041 181.994 390.524 180.641L390.574 180.506L390.453 180.462C388.998 184.231 386.1 187.548 382.92 189.788C377.895 193.342 371.607 194.369 365.578 194.463C358.922 194.562 351.901 193.535 345.333 192.487C343.597 192.211 341.872 191.896 340.18 191.471C340.114 191.538 340.048 191.615 339.976 191.681C334.339 197.084 326.409 198.475 319.257 195.39C315.124 193.607 311.658 190.738 308.594 187.448C308.55 189.17 308.461 190.892 308.313 192.597L308.251 193.274C307.946 196.45 307.359 199.819 304.962 202.111C301.088 205.825 295.468 204.335 290.999 201.918C291.004 202.034 291.004 202.155 291.004 202.277C292.211 206.383 293.423 210.494 294.635 214.605L294.897 215.481C295.778 218.401 296.745 221.324 297.011 224.379C297.518 230.218 293.638 235.984 287.158 234.025C283.758 233.001 281.035 230.139 278.422 227.847L276.776 226.421C281.035 240.366 283.989 254.808 284.265 269.361C284.281 270.15 283.603 270.746 282.854 270.774C281.102 270.845 279.217 270.498 277.454 269.797C277.354 269.791 277.255 269.786 277.15 269.769C274.142 269.333 271.348 268.246 268.885 266.64C269.452 268.445 269.706 270.382 269.557 272.407C269.518 272.898 268.752 273.069 268.642 272.529C267.22 265.525 259.037 260.233 251.984 261.574C244.412 263.015 238.836 269.537 237.469 276.96C236.003 284.934 238.808 294.156 244.004 300.309C246.396 303.146 249.543 305.513 253.279 306.109C254.987 306.38 256.761 306.286 258.42 305.8C259.125 305.59 259.787 305.298 260.459 305.022C261.44 304.625 262.586 304.564 263.512 304.145C265.611 303.201 267.722 305.138 266.658 307.296C265.733 309.178 264.9 310.447 263.363 311.418C264.608 312.941 265.738 315.06 266.157 315.629C268.295 318.52 270.466 321.252 272.902 323.896C275.382 326.578 278.087 329.028 280.947 331.296L282.149 332.247C284.904 334.435 287.303 336.463 289.246 339.601C290.778 342.079 288.794 345.44 285.923 345.402C276.941 345.275 270.411 337.372 265.76 330.468C265.099 329.48 264.476 328.437 263.898 327.367C263.688 327.703 263.457 328.018 263.198 328.305L263.71 329.685C265.231 333.746 258.679 336.401 256.778 332.609C255.395 329.861 253.791 327.245 252.006 324.773C250.953 324.624 249.923 323.984 249.35 323.156C247.9 321.054 246.275 318.929 244.903 316.688C244.142 315.965 243.36 315.27 242.561 314.591C242.329 314.795 242.092 315 241.866 315.215C240.863 317.505 239.624 319.597 238.086 321.567L237.756 321.987C234.811 325.704 230.975 329.509 226.227 330.419C224.778 330.694 223.384 328.89 224.668 327.737C227.991 324.745 231.92 322.709 234.984 319.37C236.493 317.725 237.879 315.914 239.071 314.015L239.342 313.576C239.541 313.25 239.745 312.925 239.954 312.594C238.571 311.65 237.188 310.701 235.805 309.751C231.997 313.009 227.039 314.499 222.827 317.198L222.409 317.472C218.601 320.022 214.589 314.382 217.642 311.286C221.007 307.886 223.816 303.831 226.798 300.052C225.396 297.466 224.732 294.408 224.484 291.318C224.386 290.443 224.309 289.568 224.233 288.692C222.094 288.726 219.945 287.992 218.127 286.728L217.438 286.237C215.228 286.943 212.908 287.285 210.688 287.225C205.464 287.07 203.325 281.093 206.593 277.313C209.927 273.45 215.763 272.606 220.386 274.482C220.535 274.405 220.689 274.322 220.838 274.239C220.618 273.224 220.667 272.303 220.917 271.494L220.845 271C219.828 269.438 219.159 267.655 218.906 265.77C218.705 264.277 218.746 262.798 219.091 261.324C219.206 260.833 219.444 260.325 219.627 259.813C219.251 258.863 219.03 257.881 218.962 256.893C218.856 256.767 218.752 256.639 218.653 256.5C216.358 253.274 216.822 249.387 219.005 246.777C219.015 246.611 219.031 246.445 219.053 246.28C218.925 245.992 218.808 245.701 218.701 245.407C216.568 243.252 215.002 240.659 215.294 237.445C215.465 235.555 216.241 233.853 217.415 232.581C217.207 231.964 217.187 231.249 217.44 230.652C215.565 225.66 215.802 219.648 217.151 214.065C216.854 213.215 216.7 212.293 216.733 211.316C216.887 207.172 220.469 203.364 224.712 203.414C225.223 203.418 225.701 203.485 226.161 203.583L226.167 203.484C226.329 202.24 226.671 201.09 227.17 200.059C226.924 199.97 226.697 199.843 226.498 199.673C223.78 201.126 220.902 202.236 217.886 202.993C215.668 203.549 213.396 201.024 214.775 198.939C215.415 197.972 216.12 197.103 216.881 196.31C215.8 196.316 214.702 196.389 213.592 196.532C211.597 196.791 209.371 195.428 208.076 193.585C206.466 195.152 204.852 196.714 203.237 198.276C199.148 202.244 192.971 199.324 192.326 194.093C191.109 193.767 189.973 193.215 188.976 192.426C182.529 195.23 175.591 196.769 168.499 197.062C163.407 197.272 160.431 191.334 162.812 187.139C164.41 184.325 166.394 181.797 168.681 179.601C165.132 180.688 161.467 181.472 157.726 181.974C155.703 182.244 152.843 180.567 152.033 178.707C148.936 171.555 149.201 164.099 152.766 157.14C152.904 156.864 153.058 156.6 153.207 156.335C153.576 155.413 153.978 154.502 154.414 153.608C150.027 149.028 149.647 142.218 152.011 136.517C151.063 134.978 150.7 133.123 151.344 131.446C153.179 126.617 155.824 122.158 159.164 118.328C158.844 117.71 158.563 117.053 158.326 116.347C156.447 110.635 158.624 103.742 163.016 99.7635C165.776 97.2581 168.951 95.757 172.34 94.7968C173.767 92.2693 175.602 89.9901 177.74 88.0696C177.823 87.8875 177.905 87.7054 177.999 87.5233C181.327 81.2432 187.389 77.8768 193.886 77.0987C194.139 74.6429 195.792 72.2975 198.195 71.536C198.856 69.4113 199.843 67.3805 201.198 65.5372C203.331 62.6345 206.874 61.2659 210.214 63.1698C212.043 64.2128 213.796 65.4103 215.438 66.7348C216.175 66.3884 217.011 66.1642 217.955 66.0927L218.193 66.0781L223.626 65.8021C225.902 64.7922 228.173 63.7327 230.448 62.7007C231.815 61.5694 233.341 60.6257 235.006 59.9248C236.89 59.1357 238.819 58.6887 240.753 58.5397C242.324 58.0264 243.905 57.5739 245.514 57.2207C249.295 56.3929 253.251 55.9294 257.175 55.968C257.255 54.951 257.295 53.9218 257.287 52.8805L257.279 52.3588C257.191 49.0201 259.853 46.3546 262.988 45.88ZM259.18 313.007C258.64 313.123 258.095 313.217 257.549 313.283C257.715 313.692 257.88 314.1 258.04 314.508C258.481 314.757 258.927 314.994 259.373 315.215C259.241 314.464 259.164 313.708 259.18 313.007ZM230.869 304.582L230.503 305.258C230.443 305.368 230.385 305.477 230.327 305.585C231.104 305.524 231.887 305.541 232.658 305.629L232.656 305.547C232.557 305.513 232.458 305.482 232.363 305.436C231.83 305.18 231.336 304.893 230.869 304.582ZM246.17 273.759C251.045 274.044 255.176 274.792 259.61 276.928L259.991 277.115C263.909 279.063 270.389 282.661 269.843 287.821C269.689 289.289 268.626 290.834 266.95 290.718C262.36 290.403 259.737 285.768 256.629 282.876C253.494 279.962 249.642 276.966 245.845 274.962C245.308 274.68 245.52 273.788 246.104 273.759L246.17 273.759ZM224.062 205.776C222.893 205.814 223.285 206.951 223.885 206.002C223.935 205.925 223.996 205.847 224.062 205.776ZM287.122 129.883C276.058 130.174 264.923 136.717 256.635 143.33C249.424 149.083 243.198 155.926 237.684 163.301C236.266 166.974 235.048 170.724 234.019 174.502C233.341 176.996 232.917 179.518 232.35 182.035L232.173 182.806C231.727 183.641 231.396 184.538 231.155 185.466C232.159 186.475 233.463 187.197 234.898 187.54C235.36 187.65 235.744 187.889 236.048 188.206C237.203 186.276 238.212 184.238 238.8 182.078L238.821 181.978C241.041 178.337 243.453 174.808 246.038 171.4C253.168 161.991 261.021 153.415 270.461 146.28C277.619 140.872 285.62 136.633 294.128 133.879C292.046 132.197 289.681 130.866 287.122 129.883Z" fill="black"/>
<path fill-rule="evenodd" clip-rule="evenodd" d="M373.388 334.938C369.684 333.425 366.379 330.9 363.962 327.675C363.122 326.554 362.904 325.37 363.081 324.288C363.279 323.07 363.998 321.967 364.979 321.227C365.963 320.484 367.194 320.118 368.384 320.305C369.417 320.467 370.447 321.034 371.261 322.21L371.431 322.445C372.868 324.391 374.74 325.988 376.873 327.017C378.929 328.009 381.228 328.473 383.608 328.203C388.14 327.691 391.263 325.236 394.583 321.903C394.995 321.482 395.407 321.048 395.82 320.607C396.082 320.208 396.444 319.951 396.847 319.816C397.294 319.666 397.8 319.675 398.263 319.837C398.71 319.993 399.109 320.289 399.377 320.682C399.631 321.057 399.776 321.519 399.729 322.051C399.425 325.505 397.622 328.588 395.06 331.008C392.215 333.696 388.444 335.556 384.894 336.209C380.983 336.927 376.997 336.412 373.388 334.938V334.938ZM386.739 281.651C390.9 284.184 397.241 290.09 392.764 296.37C387.495 301.907 379.908 295.559 376.17 292.687C372.703 290.462 368.808 296.185 372.025 298.784C399.04 318.813 410.003 282.313 388.844 278.672C386.514 278.271 385.649 280.867 386.739 281.651ZM338.328 258.351C338.788 252.636 347.48 251.338 348.344 256.993C349.119 262.059 348.207 266.713 345.929 271.274C343.751 275.632 338.279 273.599 337.865 269.631C337.31 264.312 338.042 261.906 338.328 258.351ZM404.49 255.821C405.702 254.231 407.452 253.146 409.548 253.759C416.097 255.676 414.167 264.988 411.867 269.52C410.617 271.981 406.577 272.605 404.751 270.438C401.776 266.904 400.351 259.846 404.134 256.365C404.236 256.185 404.35 256.004 404.49 255.821ZM345.836 233.343L346.871 233.162C350.071 232.607 354.051 232.075 356.315 234.651C357.515 236.018 357.929 238.557 356.315 239.865C353.476 242.167 350.337 241.275 346.935 241.47C344.131 241.631 341.436 242.095 338.735 242.868C332.81 244.564 327.983 247.66 322.922 251.06C322.258 251.506 321.58 250.655 321.897 250.033C324.818 244.303 330.479 239.597 336.15 236.727C339.176 235.196 342.488 233.926 345.836 233.343ZM398.52 230.776L399.312 230.938C407.929 232.742 419.124 236.345 423.205 244.822C423.36 246.02 423.196 246.277 423.062 246.445L423.018 246.501C422.908 246.644 422.82 246.842 422.301 247.005C422.157 246.97 422.012 246.934 421.865 246.896C419.995 246.405 418.515 245.728 417.082 245.027L415.529 244.26C413.726 243.375 411.908 242.523 409.981 241.893C405.869 240.55 401.64 239.604 397.345 239.098C396.414 238.989 395.517 238.674 394.81 238.135C394.139 237.623 393.626 236.914 393.392 235.972C393.089 234.753 393.176 233.83 393.829 232.731C394.32 231.905 395.023 231.332 395.83 231.003C396.653 230.668 397.589 230.589 398.52 230.776Z" fill="black"/>
<path fill-rule="evenodd" clip-rule="evenodd" d="M398.411 343.428C393.279 338.849 387.526 329.644 380.154 336.927C378.33 338.985 377.592 343.599 374.803 344.504C371.1 345.707 367.43 341.783 366.168 338.77C361.005 322.028 382.349 317.436 394.509 320.141C400.449 322.584 404.825 332.418 405.089 337.55C405.26 340.999 402.345 346.071 398.411 343.428M437.128 317.623C437.078 317.4 437.008 317.199 436.923 317.017C434.654 316.157 432.858 317.034 431.748 318.671C431.784 319.077 431.905 319.49 431.982 319.893C431.126 321.7 430.353 323.935 429.193 325.497C428.963 325.514 428.726 325.49 428.498 325.424C409.259 327.436 418.651 307.277 399.138 302.27C384.054 299.778 356.791 302.632 349.675 318.355C344.063 343.469 315.528 325.97 306.159 312.909C296.162 301.023 289.698 286.498 283.466 272.403C282.149 269.42 278.038 271.553 278.485 274.415C272.725 285.988 272.916 299.89 271.49 312.568C269.063 337.863 266.698 373.335 290.166 388.78C320.742 423.391 397.096 435.605 432.362 403.803C444.57 377.518 443.065 345.451 437.128 317.623" fill="black"/>
<path fill-rule="evenodd" clip-rule="evenodd" d="M433.204 286.59C429.494 291.582 422.615 293.172 416.271 292.623C402.588 291.304 398.281 275.741 397.833 263.645C407.008 266.23 397.057 247.922 428.422 245.909C439.479 244.986 436.431 251.674 441.316 256.56C441.216 266.815 439.511 277.957 433.204 286.59M368.03 274.807C359.951 312.694 315.714 303.682 311.067 269.53C315.358 266.497 314.228 259.007 319.558 256.294C328.007 250.888 338.569 251.119 348.163 251.246C360.427 252.09 363.922 257.177 370.221 262.728C369.918 266.435 369.044 270.829 368.03 274.807M450.728 239.634C450.275 239.559 449.82 239.488 449.366 239.421C449.012 239.219 448.596 239.064 448.112 238.971C447.007 238.69 445.91 238.501 444.815 238.399C429.092 234.855 392.718 239.887 391.217 253.323C386.21 254.997 381.878 253.498 376.075 253.647C371.658 235.157 295.29 237.767 291.618 248.914C291.604 248.911 291.59 248.907 291.576 248.903C288.047 247.809 282.844 248.073 278.805 247.9C270.18 247.719 261.546 248.488 253.108 250.31C237.306 252.825 215.741 255.769 226.73 275.53C226.732 275.533 226.734 275.537 226.737 275.541L226.739 275.539C228.632 277.483 231.847 275.918 231.966 273.286C228.272 263.924 236.617 262.8 243.038 260.11C259.014 254.361 275.281 253.564 291.804 255.343C293.048 256.808 294.934 258.086 296.928 258.755C307.976 260.592 302.153 268.799 309.137 269.993C307.854 298.602 342.538 314.219 362.634 295.412C370.658 287.556 372.571 275.918 374.432 265.427C375.415 265.206 376.041 264.667 376.406 263.954C378.772 261.589 380.258 259.405 384.936 258.755C389.614 258.106 393.215 259.409 393.702 259.808C393.825 260.056 393.957 260.304 394.11 260.553C394.324 260.923 394.615 261.218 394.945 261.451C390.326 289.94 412.41 307.957 434.706 293.181C444.393 284.055 446.44 270.083 446.845 257.612C448.158 256.818 448.989 255.28 448.535 253.346C447.908 250.681 449.377 248.373 451.717 247.214C454.757 245.709 454.22 240.213 450.728 239.634" fill="black"/>
</g>
<defs>
<filter id="filter0_d_307_12719" x="-2" y="0" width="642" height="864" filterUnits="userSpaceOnUse" color-interpolation-filters="sRGB">
<feFlood flood-opacity="0" result="BackgroundImageFix"/>
<feColorMatrix in="SourceAlpha" type="matrix" values="0 0 0 0 0 0 0 0 0 0 0 0 0 0 0 0 0 0 127 0" result="hardAlpha"/>
<feOffset dx="6" dy="10"/>
<feGaussianBlur stdDeviation="4"/>
<feComposite in2="hardAlpha" operator="out"/>
<feColorMatrix type="matrix" values="0 0 0 0 0 0 0 0 0 0 0 0 0 0 0 0 0 0 0.25 0"/>
<feBlend mode="normal" in2="BackgroundImageFix" result="effect1_dropShadow_307_12719"/>
<feBlend mode="normal" in="SourceGraphic" in2="effect1_dropShadow_307_12719" result="shape"/>
</filter>
</defs>
</svg>
